HIERARCHY
ROOT Hips
{
	OFFSET -0.001795 -0.223333 0.028219
	CHANNELS 6 Xposition Yposition Zposition Zrotation Yrotation Xrotation
	JOINT LeftUpLeg
	{
		OFFSET 0.069520 -0.091406 -0.006815
		CHANNELS 3 Zrotation Yrotation Xrotation
		JOINT LeftLeg
		{
			OFFSET 0.034277 -0.375199 -0.004496
			CHANNELS 3 Zrotation Yrotation Xrotation
			JOINT LeftFoot
			{
				OFFSET -0.013596 -0.397961 -0.043693
				CHANNELS 3 Zrotation Yrotation Xrotation
				JOINT LeftToe
				{
					OFFSET 0.026358 -0.055791 0.119288
					CHANNELS 3 Zrotation Yrotation Xrotation
					End Site
					{
						OFFSET 0.000000 0.000000 0.000000
					}
				}
			}
		}
	}
	JOINT RightUpLeg
	{
		OFFSET -0.067670 -0.090522 -0.004320
		CHANNELS 3 Zrotation Yrotation Xrotation
		JOINT RightLeg
		{
			OFFSET -0.038290 -0.382569 -0.008850
			CHANNELS 3 Zrotation Yrotation Xrotation
			JOINT RightFoot
			{
				OFFSET 0.015774 -0.398415 -0.042312
				CHANNELS 3 Zrotation Yrotation Xrotation
				JOINT RightToe
				{
					OFFSET -0.025372 -0.048144 0.123348
					CHANNELS 3 Zrotation Yrotation Xrotation
					End Site
					{
						OFFSET 0.000000 0.000000 0.000000
					}
				}
			}
		}
	}
	JOINT Spine
	{
		OFFSET -0.002533 0.108963 -0.026696
		CHANNELS 3 Zrotation Yrotation Xrotation
		JOINT Spine1
		{
			OFFSET 0.005487 0.135180 0.001092
			CHANNELS 3 Zrotation Yrotation Xrotation
			JOINT Spine2
			{
				OFFSET 0.001457 0.052922 0.025425
				CHANNELS 3 Zrotation Yrotation Xrotation
				JOINT Neck
				{
					OFFSET -0.002778 0.213870 -0.042857
					CHANNELS 3 Zrotation Yrotation Xrotation
					JOINT Head
					{
						OFFSET 0.005152 0.064970 0.051349
						CHANNELS 3 Zrotation Yrotation Xrotation
						End Site
						{
							OFFSET 0.000000 0.000000 0.000000
						}
					}
				}
				JOINT LeftShoulder
				{
					OFFSET 0.078845 0.121749 -0.034090
					CHANNELS 3 Zrotation Yrotation Xrotation
					JOINT LeftArm
					{
						OFFSET 0.090977 0.030469 -0.008868
						CHANNELS 3 Zrotation Yrotation Xrotation
						JOINT LeftForeArm
						{
							OFFSET 0.259612 -0.012772 -0.027456
							CHANNELS 3 Zrotation Yrotation Xrotation
							JOINT LeftHand
							{
								OFFSET 0.249234 0.008986 -0.001171
								CHANNELS 3 Zrotation Yrotation Xrotation
								End Site
								{
									OFFSET 0.000000 0.000000 0.000000
								}
							}
						}
					}
				}
				JOINT RightShoulder
				{
					OFFSET -0.081759 0.118833 -0.038615
					CHANNELS 3 Zrotation Yrotation Xrotation
					JOINT RightArm
					{
						OFFSET -0.096012 0.032551 -0.009143
						CHANNELS 3 Zrotation Yrotation Xrotation
						JOINT RightForeArm
						{
							OFFSET -0.253742 -0.013329 -0.021401
							CHANNELS 3 Zrotation Yrotation Xrotation
							JOINT RightHand
							{
								OFFSET -0.255298 0.007772 -0.005559
								CHANNELS 3 Zrotation Yrotation Xrotation
								End Site
								{
									OFFSET 0.000000 0.000000 0.000000
								}
							}
						}
					}
				}
			}
		}
	}
}
MOTION
Frames: 7
Frame Time: 0.050000
0.000000 1.267402 0.000000 9.373309 -57.631314 -16.218372 -12.997948 -0.962777 -4.583465 4.391691 -0.515721 2.914493 2.258812 8.763269 62.271286 0.000000 0.000000 0.000000 10.444536 0.082092 -4.039707 -7.730836 10.385059 32.481237 -18.464380 -23.973922 -6.423229 0.000000 0.000000 0.000000 -8.349516 2.532463 17.790597 66.241668 0.257254 -20.519164 -64.320483 -4.099786 -3.807544 20.817523 -15.014352 0.805800 0.000000 0.000000 0.000000 -10.692669 -43.190562 18.791674 12.536007 -0.736600 0.865328 7.218850 4.987768 0.208408 0.000000 0.000000 0.000000 -22.722659 55.047504 25.383304 -168.082076 63.405713 178.116812 -76.515448 16.869611 -3.226724 0.000000 0.000000 0.000000
0.007123 1.246644 0.020719 9.062789 -57.823602 -18.728568 -14.276041 -1.072047 -5.831229 7.365658 -0.929521 4.407910 -2.084581 8.153430 64.937794 0.000000 0.000000 0.000000 8.278026 0.018999 -3.578559 -1.066686 10.500530 37.534677 -17.190752 -29.681467 18.782617 0.000000 0.000000 0.000000 -8.021883 1.948514 16.429366 59.947477 4.149815 -30.870011 -56.777477 2.415987 15.488256 22.396122 -10.732957 -21.420408 0.000000 0.000000 0.000000 -28.091756 -40.894424 30.485544 14.044807 -8.971923 -0.023581 15.551216 11.097145 1.282657 0.000000 0.000000 0.000000 -5.111271 70.509175 41.215362 -170.047471 78.893009 161.003059 -65.611839 30.840551 -7.705174 0.000000 0.000000 0.000000
0.007424 1.189237 0.046115 16.242953 -69.164101 -25.772774 -15.146984 -0.617547 -2.981596 10.983354 -1.302440 -0.534834 -5.492307 7.246997 67.364576 0.000000 0.000000 0.000000 4.346535 0.062672 0.494391 2.827954 6.508834 28.991980 -13.472975 -22.406691 18.819830 0.000000 0.000000 0.000000 6.369372 -0.993014 9.480602 4.625760 6.593733 6.106945 -3.771987 -4.218759 -20.689989 6.919666 -0.984851 8.255861 0.000000 0.000000 0.000000 -84.311579 -36.880163 72.506850 7.763487 4.422455 1.803850 23.033882 4.984798 0.036571 0.000000 0.000000 0.000000 -94.490082 54.942760 13.273827 -147.891161 41.921736 -109.895424 -70.647037 -56.481944 58.739696 0.000000 0.000000 0.000000
0.002196 1.116772 0.075257 116.717948 -78.638241 -123.652099 -18.025479 -0.310585 -4.168240 16.090464 -0.935773 -1.678695 -11.087139 12.058395 73.020057 0.000000 0.000000 0.000000 -1.721602 2.139000 0.232651 1.366681 5.467540 22.294387 -17.256441 -17.043633 23.991768 0.000000 0.000000 0.000000 10.261434 -0.943125 8.565215 -6.566746 -3.593510 -22.149711 4.651645 3.170342 20.912594 5.510370 -5.900149 -19.053503 0.000000 0.000000 0.000000 -86.496516 -14.815498 78.128695 17.192295 -0.444380 3.093915 34.652695 31.455504 -0.830458 0.000000 0.000000 0.000000 -151.974937 8.871556 80.040238 -141.583579 -66.864034 103.121148 64.140649 28.442376 74.465886 0.000000 0.000000 0.000000
-0.005139 1.034138 0.107177 154.075180 -62.770714 -160.520619 -19.923294 0.064562 -4.239040 19.792486 0.063381 1.389852 -13.466575 11.770678 71.750062 0.000000 0.000000 0.000000 -6.779614 4.733683 -4.449921 -0.125350 6.177177 21.612150 -16.888837 -8.642541 23.809295 0.000000 0.000000 0.000000 16.613307 0.009148 10.880399 -16.535936 -9.284791 -36.934614 12.529604 -7.772037 43.974154 -12.268048 -17.124397 -59.842759 0.000000 0.000000 0.000000 -111.916541 -0.912123 82.682193 28.524938 4.898128 11.509969 11.017722 38.502428 -10.893089 0.000000 0.000000 0.000000 -164.337924 -9.795651 90.063800 161.059705 -68.188920 179.520932 43.961423 21.387309 47.811405 0.000000 0.000000 0.000000
-0.010340 0.957676 0.136050 162.964667 -43.546980 -167.355407 -20.497247 0.025969 -7.819347 18.123177 1.576218 6.044705 -5.225714 5.546890 71.628539 0.000000 0.000000 0.000000 -7.076094 5.881034 -12.213783 -9.758351 7.579160 20.480590 -22.590963 5.452141 10.592533 0.000000 0.000000 0.000000 23.371499 3.468845 15.270621 -27.312332 -0.348531 -35.123233 5.664876 -32.997970 33.962246 -11.646072 4.793260 -39.206038 0.000000 0.000000 0.000000 -128.221333 -2.420487 59.440840 35.198748 1.341286 11.589711 1.819094 30.351093 -7.963849 0.000000 0.000000 0.000000 -143.554943 -11.311222 74.519030 167.698163 -32.490908 176.300208 21.325748 4.626305 11.064643 0.000000 0.000000 0.000000
-0.009437 0.895834 0.157364 165.984366 -29.252509 -170.850049 -21.012211 0.124334 -8.361376 20.036456 3.851631 9.032445 -3.265068 1.314503 69.218191 0.000000 0.000000 0.000000 -5.386005 6.468056 -15.733211 -17.156375 6.921386 15.308815 -44.633930 14.496308 -7.980757 0.000000 0.000000 0.000000 25.424719 6.065216 22.712610 -17.778662 -10.833442 -51.484700 -35.319265 -46.246758 68.970280 5.217454 -21.513665 -69.892601 0.000000 0.000000 0.000000 -130.814798 -7.871939 35.891938 52.442315 -6.043254 14.072315 -2.748293 4.908139 -0.678506 0.000000 0.000000 0.000000 -155.404055 10.970083 82.125773 -150.483466 -14.129198 102.842588 2.354227 10.791609 0.605770 0.000000 0.000000 0.000000
